<?xml version="1.0" encoding="UTF-8" standalone="no"?>
<svg
   version="1.1"
   viewBox="0 0 617.95282 428.93857"
   fill="none"
   stroke="none"
   stroke-linecap="square"
   stroke-miterlimit="10"
   id="svg143"
   sodipodi:docname="rt-bench-structure.svg"
   width="617.95282"
   height="428.93857"
   inkscape:version="1.2 (dc2aedaf03, 2022-05-15)"
   xmlns:inkscape="http://www.inkscape.org/namespaces/inkscape"
   xmlns:sodipodi="http://sodipodi.sourceforge.net/DTD/sodipodi-0.dtd"
   xmlns="http://www.w3.org/2000/svg"
   xmlns:svg="http://www.w3.org/2000/svg">
  <defs
     id="defs147" />
  <sodipodi:namedview
     id="namedview145"
     pagecolor="#ffffff"
     bordercolor="#666666"
     borderopacity="1.0"
     inkscape:showpageshadow="2"
     inkscape:pageopacity="0.0"
     inkscape:pagecheckerboard="0"
     inkscape:deskcolor="#d1d1d1"
     showgrid="false"
     inkscape:zoom="0.65390625"
     inkscape:cx="162.10275"
     inkscape:cy="142.98686"
     inkscape:window-width="1890"
     inkscape:window-height="992"
     inkscape:window-x="15"
     inkscape:window-y="45"
     inkscape:window-maximized="0"
     inkscape:current-layer="g141" />
  <clipPath
     id="p7.0">
    <path
       d="M 0,0 H 1280 V 720 H 0 Z"
       clip-rule="nonzero"
       id="path102" />
  </clipPath>
  <g
     clip-path="url(#p7.0)"
     id="g141"
     transform="translate(-388.23306,-168.94489)"
     style="display:inline">
    <path
       fill="#b6c6cb"
       d="m 401.57318,168.94489 c -6.68897,0 -13.34012,6.65009 -13.34012,13.33795 v 240.53671 c 0,6.68787 6.65116,13.37573 13.34012,13.37573 h 591.23474 c 6.68897,0 13.37788,-6.68786 13.37788,-13.37573 V 182.28284 c 0,-6.68786 -6.68892,-13.33795 -13.37788,-13.33795 H 401.57318"
       fill-rule="evenodd"
       id="path111" />
    <path
       fill="#ffffff"
       d="m 400.21744,176.61488 h 2.60937 l 4.875,13.25 h -2.65625 l -1.23437,-3.29688 h -4.625 l -1.20313,3.29688 h -2.65625 z m 3.125,8.14062 -1.82813,-5.46875 -1.89062,5.46875 z m 11.42764,5.29688 q -1.14062,0 -2.01562,-0.51563 -0.85938,-0.51562 -1.34375,-1.39062 v 5.6875 h -2.5 v -13.75 h 2.1875 v 1.6875 q 0.54687,-0.85938 1.40625,-1.34375 0.85937,-0.5 1.96875,-0.5 0.98437,0 1.8125,0.39062 0.82812,0.39063 1.4375,1.09375 0.625,0.6875 0.96875,1.59375 0.34375,0.90625 0.34375,1.95313 0,1.42187 -0.54688,2.57812 -0.54687,1.15625 -1.51562,1.84375 -0.95313,0.67188 -2.20313,0.67188 z m -0.84375,-2.125 q 0.57813,0 1.04688,-0.23438 0.46875,-0.25 0.8125,-0.67187 0.34375,-0.42188 0.51562,-0.95313 0.1875,-0.53125 0.1875,-1.10937 0,-0.60938 -0.20312,-1.125 -0.1875,-0.53125 -0.5625,-0.9375 -0.375,-0.40625 -0.875,-0.625 -0.5,-0.21875 -1.07813,-0.21875 -0.34375,0 -0.71875,0.125 -0.35937,0.10937 -0.70312,0.34375 -0.32813,0.21875 -0.57813,0.51562 -0.25,0.29688 -0.35937,0.65625 v 2.29688 q 0.21875,0.53125 0.59375,0.98437 0.39062,0.45313 0.89062,0.70313 0.51563,0.25 1.03125,0.25 z m 12.67182,2.125 q -1.14063,0 -2.01563,-0.51563 -0.85937,-0.51562 -1.34375,-1.39062 v 5.6875 h -2.5 v -13.75 h 2.1875 v 1.6875 q 0.54688,-0.85938 1.40625,-1.34375 0.85938,-0.5 1.96875,-0.5 0.98438,0 1.8125,0.39062 0.82813,0.39063 1.4375,1.09375 0.625,0.6875 0.96875,1.59375 0.34375,0.90625 0.34375,1.95313 0,1.42187 -0.54687,2.57812 -0.54688,1.15625 -1.51563,1.84375 -0.95312,0.67188 -2.20312,0.67188 z m -0.84375,-2.125 q 0.57812,0 1.04687,-0.23438 0.46875,-0.25 0.8125,-0.67187 0.34375,-0.42188 0.51563,-0.95313 0.1875,-0.53125 0.1875,-1.10937 0,-0.60938 -0.20313,-1.125 -0.1875,-0.53125 -0.5625,-0.9375 -0.375,-0.40625 -0.875,-0.625 -0.5,-0.21875 -1.07812,-0.21875 -0.34375,0 -0.71875,0.125 -0.35938,0.10937 -0.70313,0.34375 -0.32812,0.21875 -0.57812,0.51562 -0.25,0.29688 -0.35938,0.65625 v 2.29688 q 0.21875,0.53125 0.59375,0.98437 0.39063,0.45313 0.89063,0.70313 0.51562,0.25 1.03125,0.25 z m 6.79681,-11.6875 h 2.5 v 10.48437 q 0,0.67188 0.21875,0.90625 0.21875,0.23438 0.60938,0.23438 0.29687,0 0.60937,-0.0625 0.32813,-0.0781 0.57813,-0.1875 l 0.32812,1.89062 q -0.5,0.25 -1.17187,0.375 -0.67188,0.14063 -1.21875,0.14063 -1.17188,0 -1.8125,-0.625 -0.64063,-0.625 -0.64063,-1.78125 z m 5.92966,13.625 v -9.78125 h 2.5 v 9.78125 z m 0,-11.14063 v -2.48437 h 2.5 v 2.48437 z m 9.3042,11.32813 q -1.1875,0 -2.14063,-0.39063 -0.95312,-0.40625 -1.625,-1.125 -0.67187,-0.71875 -1.04687,-1.625 -0.35938,-0.92187 -0.35938,-1.9375 0,-1.375 0.625,-2.51562 0.625,-1.15625 1.78125,-1.84375 1.15625,-0.6875 2.75,-0.6875 1.57813,0 2.71875,0.6875 1.14063,0.6875 1.70313,1.8125 l -2.4375,0.73437 q -0.32813,-0.53125 -0.85938,-0.8125 -0.51562,-0.29687 -1.14062,-0.29687 -0.71875,0 -1.3125,0.35937 -0.57813,0.35938 -0.92188,1.03125 -0.32812,0.65625 -0.32812,1.53125 0,0.85938 0.34375,1.53125 0.34375,0.65625 0.92187,1.04688 0.57813,0.375 1.29688,0.375 0.4375,0 0.84375,-0.14063 0.40625,-0.15625 0.71875,-0.42187 0.3125,-0.26563 0.46875,-0.59375 l 2.4375,0.75 q -0.32813,0.71875 -0.98438,1.29687 -0.64062,0.57813 -1.51562,0.90625 -0.85938,0.32813 -1.9375,0.32813 z m 5.30337,-3.07813 q 0,-0.95312 0.53125,-1.67187 0.53125,-0.71875 1.48438,-1.10938 0.95312,-0.39062 2.1875,-0.39062 0.60937,0 1.23437,0.0937 0.64063,0.0937 1.10938,0.29687 v -0.51562 q 0,-0.9375 -0.5625,-1.4375 -0.54688,-0.51563 -1.625,-0.51563 -0.79688,0 -1.53125,0.28125 -0.71875,0.28125 -1.53125,0.82813 l -0.79688,-1.64063 q 0.96875,-0.64062 1.98438,-0.95312 1.01562,-0.3125 2.14062,-0.3125 2.09375,0 3.25,1.04687 1.17188,1.03125 1.17188,2.98438 v 3.10937 q 0,0.39063 0.14062,0.5625 0.14063,0.15625 0.45313,0.20313 v 2.03125 q -0.32813,0.0625 -0.60938,0.0937 -0.26562,0.0312 -0.45312,0.0312 -0.75,0 -1.14063,-0.32813 -0.375,-0.34375 -0.46875,-0.82812 l -0.0469,-0.5 q -0.64063,0.82812 -1.59375,1.28125 -0.95313,0.4375 -1.9375,0.4375 -0.96875,0 -1.75,-0.39063 -0.76563,-0.40625 -1.20313,-1.10937 -0.4375,-0.70313 -0.4375,-1.57813 z m 6.07813,0.5 q 0.20312,-0.21875 0.32812,-0.4375 0.14063,-0.23437 0.14063,-0.42187 v -0.98438 q -0.45313,-0.1875 -0.98438,-0.28125 -0.51562,-0.10937 -0.96875,-0.10937 -0.98437,0 -1.60937,0.42187 -0.625,0.42188 -0.625,1.10938 0,0.375 0.20312,0.71875 0.21875,0.32812 0.60938,0.53125 0.39062,0.20312 0.9375,0.20312 0.54687,0 1.09375,-0.21875 0.54687,-0.21875 0.875,-0.53125 z m 11.06848,1.89063 q -0.32813,0.125 -0.78125,0.29687 -0.4375,0.17188 -0.95313,0.26563 -0.51562,0.10937 -1.03125,0.10937 -0.6875,0 -1.26562,-0.23437 -0.57813,-0.25 -0.92188,-0.78125 -0.34375,-0.53125 -0.34375,-1.39063 v -5.625 h -1.29687 v -1.92187 h 1.29687 v -3.17188 h 2.5 v 3.17188 h 2.04688 v 1.92187 h -2.04688 v 4.78125 q 0.0156,0.5 0.26563,0.73438 0.26562,0.21875 0.65625,0.21875 0.39062,0 0.76562,-0.125 0.375,-0.14063 0.60938,-0.23438 z m 1.30462,0.5 v -9.78125 h 2.5 v 9.78125 z m 0,-11.14063 v -2.48437 h 2.5 v 2.48437 z m 9.27298,11.32813 q -1.20312,0 -2.15625,-0.39063 -0.9375,-0.40625 -1.60937,-1.10937 -0.65625,-0.71875 -1.01563,-1.625 -0.35937,-0.92188 -0.35937,-1.9375 0,-1.01563 0.35937,-1.92188 0.35938,-0.92187 1.01563,-1.625 0.67187,-0.71875 1.60937,-1.10937 0.95313,-0.40625 2.15625,-0.40625 1.1875,0 2.125,0.40625 0.95313,0.39062 1.625,1.10937 0.67188,0.70313 1.01563,1.625 0.34375,0.90625 0.34375,1.92188 0,1.01562 -0.34375,1.9375 -0.34375,0.90625 -1.01563,1.625 -0.65625,0.70312 -1.60937,1.10937 -0.95313,0.39063 -2.14063,0.39063 z m -2.5625,-5.0625 q 0,0.85937 0.32813,1.53125 0.34375,0.65625 0.92187,1.03125 0.57813,0.375 1.3125,0.375 0.70313,0 1.28125,-0.375 0.57813,-0.39063 0.92188,-1.04688 0.34375,-0.67187 0.34375,-1.53125 0,-0.84375 -0.34375,-1.51562 -0.34375,-0.67188 -0.92188,-1.03125 -0.57812,-0.375 -1.28125,-0.375 -0.73437,0 -1.3125,0.39062 -0.57812,0.375 -0.92187,1.03125 -0.32813,0.65625 -0.32813,1.51563 z m 18.4307,4.875 h -2.5 v -5.48438 q 0,-1.17187 -0.40625,-1.71875 -0.40625,-0.54687 -1.14063,-0.54687 -0.5,0 -1.01562,0.26562 -0.51563,0.26563 -0.92188,0.71875 -0.40625,0.45313 -0.59375,1.0625 v 5.70313 h -2.5 v -9.78125 h 2.25 v 1.8125 q 0.375,-0.625 0.95313,-1.0625 0.57812,-0.45313 1.32812,-0.67188 0.76563,-0.23437 1.60938,-0.23437 0.90625,0 1.48437,0.32812 0.59375,0.3125 0.90625,0.875 0.3125,0.54688 0.42188,1.23438 0.125,0.6875 0.125,1.40625 z m 6.65213,-13.625 h 2.5 v 10.48437 q 0,0.67188 0.21875,0.90625 0.21875,0.23438 0.60937,0.23438 0.29688,0 0.60938,-0.0625 0.32812,-0.0781 0.57812,-0.1875 l 0.32813,1.89062 q -0.5,0.25 -1.17188,0.375 -0.67187,0.14063 -1.21875,0.14063 -1.17187,0 -1.8125,-0.625 -0.64062,-0.625 -0.64062,-1.78125 z m 5.25778,10.73437 q 0,-0.95312 0.53125,-1.67187 0.53125,-0.71875 1.48438,-1.10938 0.95312,-0.39062 2.1875,-0.39062 0.60937,0 1.23437,0.0937 0.64063,0.0937 1.10938,0.29687 v -0.51562 q 0,-0.9375 -0.5625,-1.4375 -0.54688,-0.51563 -1.625,-0.51563 -0.79688,0 -1.53125,0.28125 -0.71875,0.28125 -1.53125,0.82813 l -0.79688,-1.64063 q 0.96875,-0.64062 1.98438,-0.95312 1.01562,-0.3125 2.14062,-0.3125 2.09375,0 3.25,1.04687 1.17188,1.03125 1.17188,2.98438 v 3.10937 q 0,0.39063 0.14062,0.5625 0.14063,0.15625 0.45313,0.20313 v 2.03125 q -0.32813,0.0625 -0.60938,0.0937 -0.26562,0.0312 -0.45312,0.0312 -0.75,0 -1.14063,-0.32813 -0.375,-0.34375 -0.46875,-0.82812 l -0.0469,-0.5 q -0.64063,0.82812 -1.59375,1.28125 -0.95313,0.4375 -1.9375,0.4375 -0.96875,0 -1.75,-0.39063 -0.76563,-0.40625 -1.20313,-1.10937 -0.4375,-0.70313 -0.4375,-1.57813 z m 6.07813,0.5 q 0.20312,-0.21875 0.32812,-0.4375 0.14063,-0.23437 0.14063,-0.42187 v -0.98438 q -0.45313,-0.1875 -0.98438,-0.28125 -0.51562,-0.10937 -0.96875,-0.10937 -0.98437,0 -1.60937,0.42187 -0.625,0.42188 -0.625,1.10938 0,0.375 0.20312,0.71875 0.21875,0.32812 0.60938,0.53125 0.39062,0.20312 0.9375,0.20312 0.54687,0 1.09375,-0.21875 0.54687,-0.21875 0.875,-0.53125 z m 5.1322,4.29688 q 0.32812,0.0781 0.60937,0.125 0.29688,0.0625 0.51563,0.0625 0.34375,0 0.57812,-0.1875 0.23438,-0.17188 0.45313,-0.625 0.23437,-0.45313 0.46875,-1.28125 l -3.85938,-9.78125 h 2.59375 l 2.625,7.21875 2.32813,-7.21875 h 2.375 l -4.09375,11.71875 q -0.23438,0.65625 -0.6875,1.1875 -0.45313,0.53125 -1.14063,0.82812 -0.67187,0.3125 -1.51562,0.3125 -0.29688,0 -0.59375,-0.0469 -0.29688,-0.0469 -0.65625,-0.15625 z m 14.25311,-1.71875 q -1.17187,0 -2.125,-0.39063 -0.95312,-0.40625 -1.625,-1.10937 -0.67187,-0.70313 -1.04687,-1.60938 -0.35938,-0.90625 -0.35938,-1.90625 0,-1.40625 0.625,-2.5625 0.625,-1.15625 1.79688,-1.84375 1.17187,-0.70312 2.75,-0.70312 1.60937,0 2.75,0.70312 1.14062,0.6875 1.73437,1.84375 0.60938,1.14063 0.60938,2.46875 0,0.21875 -0.0156,0.45313 -0.0156,0.23437 -0.0312,0.39062 h -7.5625 q 0.0781,0.73438 0.4375,1.29688 0.35938,0.5625 0.92188,0.85937 0.57812,0.28125 1.23437,0.28125 0.75,0 1.40625,-0.35937 0.65625,-0.375 0.90625,-0.96875 l 2.14063,0.59375 q -0.34375,0.75 -1.01563,1.32812 -0.65625,0.57813 -1.5625,0.90625 -0.89062,0.32813 -1.96875,0.32813 z m -2.5625,-5.85938 h 5.125 q -0.0781,-0.75 -0.42187,-1.29687 -0.34375,-0.54688 -0.90625,-0.85938 -0.5625,-0.3125 -1.25,-0.3125 -0.67188,0 -1.23438,0.3125 -0.54687,0.3125 -0.89062,0.85938 -0.34375,0.54687 -0.42188,1.29687 z m 15.0188,-1.9375 q -1.125,0 -2.03125,0.4375 -0.89062,0.4375 -1.28125,1.26563 v 5.90625 h -2.5 v -9.78125 h 2.29688 v 2.09375 q 0.51562,-1 1.3125,-1.57813 0.8125,-0.57812 1.70312,-0.64062 0.20313,0 0.3125,0 0.125,0 0.1875,0.0156 z"
       fill-rule="nonzero"
       id="path113" />
    <path
       fill="#e5a023"
       d="m 400.2883,525.5811 c -6.04651,0 -12.05524,6.00317 -12.05524,12.04407 v 48.17645 c 0,6.04095 6.00873,12.08185 12.05524,12.08185 h 593.80457 c 6.04653,0 12.09303,-6.0409 12.09303,-12.08185 v -48.17645 c 0,-6.0409 -6.0465,-12.04407 -12.09303,-12.04407 H 400.2883"
       fill-rule="evenodd"
       id="path119" />
    <path
       fill="#ffffff"
       d="m 647.7293,555.2212 v 13.25 h -2.54688 v -5.65625 h -6.01562 v 5.65625 h -2.57813 v -13.25 h 2.57813 v 5.35937 h 6.01562 v -5.35937 z m 1.74005,10.35937 q 0,-0.95312 0.53125,-1.67187 0.53125,-0.71875 1.48438,-1.10938 0.95312,-0.39062 2.1875,-0.39062 0.60937,0 1.23437,0.0937 0.64063,0.0937 1.10938,0.29687 v -0.51562 q 0,-0.9375 -0.5625,-1.4375 -0.54688,-0.51563 -1.625,-0.51563 -0.79688,0 -1.53125,0.28125 -0.71875,0.28125 -1.53125,0.82813 l -0.79688,-1.64063 q 0.96875,-0.64062 1.98438,-0.95312 1.01562,-0.3125 2.14062,-0.3125 2.09375,0 3.25,1.04687 1.17188,1.03125 1.17188,2.98438 v 3.10937 q 0,0.39063 0.14062,0.5625 0.14063,0.15625 0.45313,0.20313 v 2.03125 q -0.32813,0.0625 -0.60938,0.0937 -0.26562,0.0312 -0.45312,0.0312 -0.75,0 -1.14063,-0.32813 -0.375,-0.34375 -0.46875,-0.82812 l -0.0469,-0.5 q -0.64063,0.82812 -1.59375,1.28125 -0.95313,0.4375 -1.9375,0.4375 -0.96875,0 -1.75,-0.39063 -0.76563,-0.40625 -1.20313,-1.10937 -0.4375,-0.70313 -0.4375,-1.57813 z m 6.07813,0.5 q 0.20312,-0.21875 0.32812,-0.4375 0.14063,-0.23437 0.14063,-0.42187 v -0.98438 q -0.45313,-0.1875 -0.98438,-0.28125 -0.51562,-0.10937 -0.96875,-0.10937 -0.98437,0 -1.60937,0.42187 -0.625,0.42188 -0.625,1.10938 0,0.375 0.20312,0.71875 0.21875,0.32812 0.60938,0.53125 0.39062,0.20312 0.9375,0.20312 0.54687,0 1.09375,-0.21875 0.54687,-0.21875 0.875,-0.53125 z m 11.11493,-5.21875 q -1.125,0 -2.03125,0.4375 -0.89063,0.4375 -1.28125,1.26563 v 5.90625 h -2.5 v -9.78125 h 2.29687 v 2.09375 q 0.51563,-1 1.3125,-1.57813 0.8125,-0.57812 1.70313,-0.64062 0.20312,0 0.3125,0 0.125,0 0.1875,0.0156 z m 0.72039,2.71875 q 0,-1.42187 0.54688,-2.5625 0.5625,-1.14062 1.54687,-1.8125 1,-0.67187 2.26563,-0.67187 1.07812,0 1.9375,0.53125 0.875,0.53125 1.35937,1.34375 v -5.5625 h 2.5 v 10.82812 q 0,0.39063 0.125,0.5625 0.14063,0.15625 0.45313,0.20313 v 2.03125 q -0.64063,0.125 -1.0625,0.125 -0.67188,0 -1.10938,-0.32813 -0.4375,-0.34375 -0.48437,-0.875 l -0.0469,-0.625 q -0.53125,0.92188 -1.46875,1.40625 -0.92187,0.48438 -1.92187,0.48438 -1.01563,0 -1.85938,-0.39063 -0.84375,-0.39062 -1.46875,-1.07812 -0.625,-0.70313 -0.96875,-1.625 -0.34375,-0.92188 -0.34375,-1.98438 z m 7.65625,1.3125 v -2.32812 q -0.1875,-0.54688 -0.59375,-0.96875 -0.40625,-0.4375 -0.92187,-0.6875 -0.5,-0.25 -1,-0.25 -0.57813,0 -1.04688,0.25 -0.46875,0.23437 -0.8125,0.64062 -0.34375,0.40625 -0.51562,0.95313 -0.17188,0.54687 -0.17188,1.14062 0,0.59375 0.1875,1.125 0.20313,0.53125 0.5625,0.92188 0.375,0.39062 0.875,0.625 0.5,0.21875 1.07813,0.21875 0.34375,0 0.70312,-0.125 0.375,-0.125 0.70313,-0.32813 0.32812,-0.21875 0.57812,-0.53125 0.25,-0.3125 0.375,-0.65625 z m 17.05841,-6.20312 h 2.375 l -4.09375,9.78125 h -2.09375 l -1.64062,-4.20313 -1.59375,4.20313 h -2.10938 l -4.07812,-9.78125 h 2.35937 l 2.90625,7.39062 1.14063,-3.1875 -1.70313,-4.17187 h 2.07813 l 1,2.98437 1.03125,-2.98437 h 2.0625 l -1.6875,4.17187 1.15625,3.1875 z m 2.6131,6.89062 q 0,-0.95312 0.53125,-1.67187 0.53125,-0.71875 1.48438,-1.10938 0.95312,-0.39062 2.1875,-0.39062 0.60937,0 1.23437,0.0937 0.64063,0.0937 1.10938,0.29687 v -0.51562 q 0,-0.9375 -0.5625,-1.4375 -0.54688,-0.51563 -1.625,-0.51563 -0.79688,0 -1.53125,0.28125 -0.71875,0.28125 -1.53125,0.82813 l -0.79688,-1.64063 q 0.96875,-0.64062 1.98438,-0.95312 1.01562,-0.3125 2.14062,-0.3125 2.09375,0 3.25,1.04687 1.17188,1.03125 1.17188,2.98438 v 3.10937 q 0,0.39063 0.14062,0.5625 0.14063,0.15625 0.45313,0.20313 v 2.03125 q -0.32813,0.0625 -0.60938,0.0937 -0.26562,0.0312 -0.45312,0.0312 -0.75,0 -1.14063,-0.32813 -0.375,-0.34375 -0.46875,-0.82812 l -0.0469,-0.5 q -0.64063,0.82812 -1.59375,1.28125 -0.95313,0.4375 -1.9375,0.4375 -0.96875,0 -1.75,-0.39063 -0.76563,-0.40625 -1.20313,-1.10937 -0.4375,-0.70313 -0.4375,-1.57813 z m 6.07813,0.5 q 0.20312,-0.21875 0.32812,-0.4375 0.14063,-0.23437 0.14063,-0.42187 v -0.98438 q -0.45313,-0.1875 -0.98438,-0.28125 -0.51562,-0.10937 -0.96875,-0.10937 -0.98437,0 -1.60937,0.42187 -0.625,0.42188 -0.625,1.10938 0,0.375 0.20312,0.71875 0.21875,0.32812 0.60938,0.53125 0.39062,0.20312 0.9375,0.20312 0.54687,0 1.09375,-0.21875 0.54687,-0.21875 0.875,-0.53125 z m 11.11493,-5.21875 q -1.125,0 -2.03125,0.4375 -0.89063,0.4375 -1.28125,1.26563 v 5.90625 h -2.5 v -9.78125 h 2.29687 v 2.09375 q 0.51563,-1 1.3125,-1.57813 0.8125,-0.57812 1.70313,-0.64062 0.20312,0 0.3125,0 0.125,0 0.1875,0.0156 z m 5.80804,7.79688 q -1.17188,0 -2.125,-0.39063 -0.95313,-0.40625 -1.625,-1.10937 -0.67188,-0.70313 -1.04688,-1.60938 -0.35937,-0.90625 -0.35937,-1.90625 0,-1.40625 0.625,-2.5625 0.625,-1.15625 1.79687,-1.84375 1.17188,-0.70312 2.75,-0.70312 1.60938,0 2.75,0.70312 1.14063,0.6875 1.73438,1.84375 0.60937,1.14063 0.60937,2.46875 0,0.21875 -0.0156,0.45313 -0.0156,0.23437 -0.0312,0.39062 h -7.5625 q 0.0781,0.73438 0.4375,1.29688 0.35937,0.5625 0.92187,0.85937 0.57813,0.28125 1.23438,0.28125 0.75,0 1.40625,-0.35937 0.65625,-0.375 0.90625,-0.96875 l 2.14062,0.59375 q -0.34375,0.75 -1.01562,1.32812 -0.65625,0.57813 -1.5625,0.90625 -0.89063,0.32813 -1.96875,0.32813 z m -2.5625,-5.85938 h 5.125 q -0.0781,-0.75 -0.42188,-1.29687 -0.34375,-0.54688 -0.90625,-0.85938 -0.5625,-0.3125 -1.25,-0.3125 -0.67187,0 -1.23437,0.3125 -0.54688,0.3125 -0.89063,0.85938 -0.34375,0.54687 -0.42187,1.29687 z m 13.91821,5.67188 v -13.25 h 2.57813 v 11 h 6.75 v 2.25 z m 9.98902,-2.89063 q 0,-0.95312 0.53125,-1.67187 0.53125,-0.71875 1.48437,-1.10938 0.95313,-0.39062 2.1875,-0.39062 0.60938,0 1.23438,0.0937 0.64062,0.0937 1.10937,0.29687 v -0.51562 q 0,-0.9375 -0.5625,-1.4375 -0.54687,-0.51563 -1.625,-0.51563 -0.79687,0 -1.53125,0.28125 -0.71875,0.28125 -1.53125,0.82813 l -0.79687,-1.64063 q 0.96875,-0.64062 1.98437,-0.95312 1.01563,-0.3125 2.14063,-0.3125 2.09375,0 3.25,1.04687 1.17187,1.03125 1.17187,2.98438 v 3.10937 q 0,0.39063 0.14063,0.5625 0.14062,0.15625 0.45312,0.20313 v 2.03125 q -0.32812,0.0625 -0.60937,0.0937 -0.26563,0.0312 -0.45313,0.0312 -0.75,0 -1.14062,-0.32813 -0.375,-0.34375 -0.46875,-0.82812 l -0.0469,-0.5 q -0.64062,0.82812 -1.59375,1.28125 -0.95312,0.4375 -1.9375,0.4375 -0.96875,0 -1.75,-0.39063 -0.76562,-0.40625 -1.20312,-1.10937 -0.4375,-0.70313 -0.4375,-1.57813 z m 6.07812,0.5 q 0.20313,-0.21875 0.32813,-0.4375 0.14062,-0.23437 0.14062,-0.42187 v -0.98438 q -0.45312,-0.1875 -0.98437,-0.28125 -0.51563,-0.10937 -0.96875,-0.10937 -0.98438,0 -1.60938,0.42187 -0.625,0.42188 -0.625,1.10938 0,0.375 0.20313,0.71875 0.21875,0.32812 0.60937,0.53125 0.39063,0.20312 0.9375,0.20312 0.54688,0 1.09375,-0.21875 0.54688,-0.21875 0.875,-0.53125 z m 5.13226,4.29688 q 0.32813,0.0781 0.60938,0.125 0.29687,0.0625 0.51562,0.0625 0.34375,0 0.57813,-0.1875 0.23437,-0.17188 0.45312,-0.625 0.23438,-0.45313 0.46875,-1.28125 l -3.85937,-9.78125 h 2.59375 l 2.625,7.21875 2.32812,-7.21875 h 2.375 l -4.09375,11.71875 q -0.23437,0.65625 -0.6875,1.1875 -0.45312,0.53125 -1.14062,0.82812 -0.67188,0.3125 -1.51563,0.3125 -0.29687,0 -0.59375,-0.0469 -0.29687,-0.0469 -0.65625,-0.15625 z m 14.25306,-1.71875 q -1.17188,0 -2.125,-0.39063 -0.95313,-0.40625 -1.625,-1.10937 -0.67188,-0.70313 -1.04688,-1.60938 -0.35937,-0.90625 -0.35937,-1.90625 0,-1.40625 0.625,-2.5625 0.625,-1.15625 1.79687,-1.84375 1.17188,-0.70312 2.75,-0.70312 1.60938,0 2.75,0.70312 1.14063,0.6875 1.73438,1.84375 0.60937,1.14063 0.60937,2.46875 0,0.21875 -0.0156,0.45313 -0.0156,0.23437 -0.0312,0.39062 h -7.5625 q 0.0781,0.73438 0.4375,1.29688 0.35937,0.5625 0.92187,0.85937 0.57813,0.28125 1.23438,0.28125 0.75,0 1.40625,-0.35937 0.65625,-0.375 0.90625,-0.96875 l 2.14062,0.59375 q -0.34375,0.75 -1.01562,1.32812 -0.65625,0.57813 -1.5625,0.90625 -0.89063,0.32813 -1.96875,0.32813 z m -2.5625,-5.85938 h 5.125 q -0.0781,-0.75 -0.42188,-1.29687 -0.34375,-0.54688 -0.90625,-0.85938 -0.5625,-0.3125 -1.25,-0.3125 -0.67187,0 -1.23437,0.3125 -0.54688,0.3125 -0.89063,0.85938 -0.34375,0.54687 -0.42187,1.29687 z m 15.01886,-1.9375 q -1.125,0 -2.03125,0.4375 -0.89063,0.4375 -1.28125,1.26563 v 5.90625 h -2.5 v -9.78125 h 2.29687 v 2.09375 q 0.51563,-1 1.3125,-1.57813 0.8125,-0.57812 1.70313,-0.64062 0.20312,0 0.3125,0 0.125,0 0.1875,0.0156 z"
       fill-rule="nonzero"
       id="path121" />
    <path
       fill="#d77e6f"
       d="m 400.2883,444.737 c -6.04651,0 -12.05524,6.00317 -12.05524,12.04413 v 48.17642 c 0,6.04092 6.00873,12.08188 12.05524,12.08188 h 593.80457 c 6.04653,0 12.09303,-6.04096 12.09303,-12.08188 v -48.17642 c 0,-6.04096 -6.0465,-12.04413 -12.09303,-12.04413 H 400.2883"
       fill-rule="evenodd"
       id="path123" />
    <path
       fill="#ffffff"
       d="m 633.1779,487.72083 q -1.45312,0 -2.64062,-0.5625 -1.1875,-0.5625 -2.03125,-1.51563 -0.84375,-0.96875 -1.3125,-2.17187 -0.46875,-1.20313 -0.46875,-2.46875 0,-1.32813 0.48437,-2.53125 0.5,-1.20313 1.35938,-2.14063 0.875,-0.9375 2.0625,-1.48437 1.1875,-0.5625 2.60937,-0.5625 1.4375,0 2.60938,0.57812 1.1875,0.57813 2.03125,1.54688 0.84375,0.96875 1.29687,2.17187 0.46875,1.1875 0.46875,2.46875 0,1.29688 -0.48437,2.5 -0.48438,1.20313 -1.35938,2.15625 -0.85937,0.9375 -2.04687,1.48438 -1.17188,0.53125 -2.57813,0.53125 z m -3.84375,-6.71875 q 0,0.85937 0.26563,1.67187 0.26562,0.79688 0.75,1.42188 0.5,0.625 1.21875,0.98437 0.71875,0.35938 1.625,0.35938 0.9375,0 1.65625,-0.375 0.73437,-0.39063 1.21875,-1.03125 0.48437,-0.64063 0.73437,-1.4375 0.25,-0.79688 0.25,-1.59375 0,-0.85938 -0.26562,-1.64063 -0.26563,-0.79687 -0.76563,-1.42187 -0.48437,-0.625 -1.20312,-0.98438 -0.71875,-0.375 -1.625,-0.375 -0.95313,0 -1.67188,0.39063 -0.70312,0.375 -1.20312,1.01562 -0.48438,0.625 -0.73438,1.42188 -0.25,0.78125 -0.25,1.59375 z m 17.8233,6.8125 q -1.14062,0 -2.01562,-0.51563 -0.85938,-0.51562 -1.34381,-1.39062 v 5.6875 h -2.5 v -13.75 h 2.1875 v 1.6875 q 0.54687,-0.85938 1.40631,-1.34375 0.85937,-0.5 1.96875,-0.5 0.98437,0 1.8125,0.39062 0.82812,0.39063 1.4375,1.09375 0.625,0.6875 0.96875,1.59375 0.34375,0.90625 0.34375,1.95313 0,1.42187 -0.54688,2.57812 -0.54687,1.15625 -1.51562,1.84375 -0.95313,0.67188 -2.20313,0.67188 z m -0.84375,-2.125 q 0.57813,0 1.04688,-0.23438 0.46875,-0.25 0.8125,-0.67187 0.34375,-0.42188 0.51562,-0.95313 0.1875,-0.53125 0.1875,-1.10937 0,-0.60938 -0.20312,-1.125 -0.1875,-0.53125 -0.5625,-0.9375 -0.375,-0.40625 -0.875,-0.625 -0.5,-0.21875 -1.07813,-0.21875 -0.34375,0 -0.71875,0.125 -0.35937,0.10937 -0.70312,0.34375 -0.32813,0.21875 -0.57819,0.51562 -0.25,0.29688 -0.35937,0.65625 v 2.29688 q 0.21875,0.53125 0.59381,0.98437 0.39062,0.45313 0.89062,0.70313 0.51563,0.25 1.03125,0.25 z m 11.34369,2.125 q -1.17187,0 -2.125,-0.39063 -0.95312,-0.40625 -1.625,-1.10937 -0.67187,-0.70313 -1.04687,-1.60938 -0.35938,-0.90625 -0.35938,-1.90625 0,-1.40625 0.625,-2.5625 0.625,-1.15625 1.79688,-1.84375 1.17187,-0.70312 2.75,-0.70312 1.60937,0 2.75,0.70312 1.14062,0.6875 1.73437,1.84375 0.60938,1.14063 0.60938,2.46875 0,0.21875 -0.0156,0.45313 -0.0156,0.23437 -0.0312,0.39062 h -7.5625 q 0.0781,0.73438 0.4375,1.29688 0.35938,0.5625 0.92188,0.85937 0.57812,0.28125 1.23437,0.28125 0.75,0 1.40625,-0.35937 0.65625,-0.375 0.90625,-0.96875 l 2.14063,0.59375 q -0.34375,0.75 -1.01563,1.32812 -0.65625,0.57813 -1.5625,0.90625 -0.89062,0.32813 -1.96875,0.32813 z m -2.5625,-5.85938 h 5.125 q -0.0781,-0.75 -0.42187,-1.29687 -0.34375,-0.54688 -0.90625,-0.85938 -0.5625,-0.3125 -1.25,-0.3125 -0.67188,0 -1.23438,0.3125 -0.54687,0.3125 -0.89062,0.85938 -0.34375,0.54687 -0.42188,1.29687 z m 15.0188,-1.9375 q -1.125,0 -2.03125,0.4375 -0.89062,0.4375 -1.28125,1.26563 v 5.90625 h -2.5 v -9.78125 h 2.29688 v 2.09375 q 0.51562,-1 1.3125,-1.57813 0.8125,-0.57812 1.70312,-0.64062 0.20313,0 0.3125,0 0.125,0 0.1875,0.0156 z m 0.67963,4.71875 q 0,-0.95312 0.53125,-1.67187 0.53125,-0.71875 1.48437,-1.10938 0.95313,-0.39062 2.1875,-0.39062 0.60938,0 1.23438,0.0937 0.64062,0.0937 1.10937,0.29687 v -0.51562 q 0,-0.9375 -0.5625,-1.4375 -0.54687,-0.51563 -1.625,-0.51563 -0.79687,0 -1.53125,0.28125 -0.71875,0.28125 -1.53125,0.82813 l -0.79687,-1.64063 q 0.96875,-0.64062 1.98437,-0.95312 1.01563,-0.3125 2.14063,-0.3125 2.09375,0 3.25,1.04687 1.17187,1.03125 1.17187,2.98438 v 3.10937 q 0,0.39063 0.14063,0.5625 0.14062,0.15625 0.45312,0.20313 v 2.03125 q -0.32812,0.0625 -0.60937,0.0937 -0.26563,0.0312 -0.45313,0.0312 -0.75,0 -1.14062,-0.32813 -0.375,-0.34375 -0.46875,-0.82812 l -0.0469,-0.5 q -0.64062,0.82812 -1.59375,1.28125 -0.95312,0.4375 -1.9375,0.4375 -0.96875,0 -1.75,-0.39063 -0.76562,-0.40625 -1.20312,-1.10937 -0.4375,-0.70313 -0.4375,-1.57813 z m 6.07812,0.5 q 0.20313,-0.21875 0.32813,-0.4375 0.14062,-0.23437 0.14062,-0.42187 v -0.98438 q -0.45312,-0.1875 -0.98437,-0.28125 -0.51563,-0.10937 -0.96875,-0.10937 -0.98438,0 -1.60938,0.42187 -0.625,0.42188 -0.625,1.10938 0,0.375 0.20313,0.71875 0.21875,0.32812 0.60937,0.53125 0.39063,0.20312 0.9375,0.20312 0.54688,0 1.09375,-0.21875 0.54688,-0.21875 0.875,-0.53125 z m 11.06848,1.89063 q -0.32812,0.125 -0.78125,0.29687 -0.4375,0.17188 -0.95312,0.26563 -0.51563,0.10937 -1.03125,0.10937 -0.6875,0 -1.26563,-0.23437 -0.57812,-0.25 -0.92187,-0.78125 -0.34375,-0.53125 -0.34375,-1.39063 v -5.625 h -1.29688 v -1.92187 h 1.29688 v -3.17188 h 2.5 v 3.17188 h 2.04687 v 1.92187 h -2.04687 v 4.78125 q 0.0156,0.5 0.26562,0.73438 0.26563,0.21875 0.65625,0.21875 0.39063,0 0.76563,-0.125 0.375,-0.14063 0.60937,-0.23438 z m 1.30463,0.5 v -9.78125 h 2.5 v 9.78125 z m 0,-11.14063 v -2.48437 h 2.5 v 2.48437 z M 703.08,487.62708 h -2.5 v -5.48438 q 0,-1.17187 -0.40625,-1.71875 -0.40625,-0.54687 -1.14063,-0.54687 -0.5,0 -1.01562,0.26562 -0.51563,0.26563 -0.92188,0.71875 -0.40625,0.45313 -0.59375,1.0625 v 5.70313 h -2.5 v -9.78125 h 2.25 v 1.8125 q 0.375,-0.625 0.95313,-1.0625 0.57812,-0.45313 1.32812,-0.67188 0.76563,-0.23437 1.60938,-0.23437 0.90625,0 1.48437,0.32812 0.59375,0.3125 0.90625,0.875 0.3125,0.54688 0.42188,1.23438 0.125,0.6875 0.125,1.40625 z m 6.01837,0.0625 q -0.96875,0 -1.78125,-0.375 -0.8125,-0.39063 -1.40625,-1.07813 -0.59375,-0.70312 -0.90625,-1.59375 -0.3125,-0.89062 -0.3125,-1.90625 0,-1.0625 0.32813,-1.96875 0.34375,-0.92187 0.9375,-1.60937 0.60937,-0.70313 1.4375,-1.07813 0.84375,-0.39062 1.84375,-0.39062 1.14062,0 2,0.51562 0.85937,0.5 1.42187,1.35938 v -1.71875 h 2.17188 v 9.3125 q 0,1.45312 -0.70313,2.48437 -0.6875,1.04688 -1.92187,1.59375 -1.23438,0.54688 -2.79688,0.54688 -1.59375,0 -2.6875,-0.53125 -1.09375,-0.53125 -1.89062,-1.5 l 1.375,-1.32813 q 0.54687,0.70313 1.39062,1.09375 0.85938,0.39063 1.8125,0.39063 0.79688,0 1.45313,-0.29688 0.67187,-0.28125 1.0625,-0.89062 0.40625,-0.60938 0.40625,-1.5625 v -1.23438 q -0.48438,0.84375 -1.375,1.3125 -0.875,0.45313 -1.85938,0.45313 z m 0.82813,-2 q 0.42187,0 0.78125,-0.125 0.375,-0.14063 0.6875,-0.35938 0.32812,-0.23437 0.5625,-0.53125 0.25,-0.3125 0.375,-0.625 v -2.32812 q -0.21875,-0.59375 -0.625,-1.01563 -0.39063,-0.42187 -0.89063,-0.65625 -0.5,-0.23437 -1.03125,-0.23437 -0.57812,0 -1.04687,0.25 -0.46875,0.23437 -0.8125,0.67187 -0.32813,0.4375 -0.51563,0.96875 -0.17187,0.53125 -0.17187,1.10938 0,0.59375 0.20312,1.125 0.21875,0.51562 0.57813,0.90625 0.35937,0.39062 0.85937,0.625 0.5,0.21875 1.04688,0.21875 z m 19.77435,-7.84375 q -0.125,-0.125 -0.46875,-0.34375 -0.34375,-0.23438 -0.84375,-0.4375 -0.48438,-0.20313 -1.0625,-0.35938 -0.57813,-0.15625 -1.1875,-0.15625 -1.03125,0 -1.57813,0.39063 -0.53125,0.39062 -0.53125,1.09375 0,0.54687 0.32813,0.875 0.34375,0.3125 1.01562,0.53125 0.67188,0.21875 1.6875,0.48437 1.29688,0.3125 2.25,0.78125 0.96875,0.45313 1.48438,1.1875 0.51562,0.73438 0.51562,1.95313 0,1.0625 -0.39062,1.8125 -0.39063,0.75 -1.07813,1.21875 -0.6875,0.46875 -1.57812,0.6875 -0.875,0.21875 -1.85938,0.21875 -0.98437,0 -1.98437,-0.20313 -0.98438,-0.21875 -1.90625,-0.59375 -0.90625,-0.39062 -1.67188,-0.92187 l 1.14063,-2.21875 q 0.17187,0.15625 0.59375,0.4375 0.4375,0.26562 1.04687,0.54687 0.625,0.26563 1.34375,0.45313 0.73438,0.17187 1.46875,0.17187 1.04688,0 1.59375,-0.34375 0.54688,-0.35937 0.54688,-1.01562 0,-0.59375 -0.4375,-0.92188 -0.42188,-0.34375 -1.1875,-0.59375 -0.76563,-0.25 -1.8125,-0.54687 -1.25,-0.35938 -2.09375,-0.79688 -0.84375,-0.4375 -1.25,-1.10937 -0.40625,-0.67188 -0.40625,-1.67188 0,-1.375 0.64062,-2.29687 0.64063,-0.92188 1.73438,-1.39063 1.10937,-0.48437 2.45312,-0.48437 0.9375,0 1.76563,0.21875 0.82812,0.20312 1.54687,0.54687 0.73438,0.32813 1.3125,0.71875 z m 3.19702,11.6875 q 0.32813,0.0781 0.60938,0.125 0.29687,0.0625 0.51562,0.0625 0.34375,0 0.57813,-0.1875 0.23437,-0.17188 0.45312,-0.625 0.23438,-0.45313 0.46875,-1.28125 l -3.85937,-9.78125 h 2.59375 l 2.625,7.21875 2.32812,-7.21875 h 2.375 l -4.09375,11.71875 q -0.23437,0.65625 -0.6875,1.1875 -0.45312,0.53125 -1.14062,0.82812 -0.67188,0.3125 -1.51563,0.3125 -0.29687,0 -0.59375,-0.0469 -0.29687,-0.0469 -0.65625,-0.15625 z m 13.40894,-1.71875 q -1.25,0 -2.39063,-0.40625 -1.125,-0.42188 -1.95312,-1.21875 l 0.89062,-1.625 q 0.89063,0.71875 1.73438,1.0625 0.84375,0.32812 1.625,0.32812 0.73437,0 1.17187,-0.26562 0.4375,-0.26563 0.4375,-0.78125 0,-0.35938 -0.25,-0.54688 -0.23437,-0.20312 -0.70312,-0.34375 -0.45313,-0.15625 -1.09375,-0.34375 -1.09375,-0.35937 -1.82813,-0.6875 -0.71875,-0.34375 -1.07812,-0.84375 -0.35938,-0.51562 -0.35938,-1.32812 0,-0.96875 0.48438,-1.65625 0.5,-0.70313 1.375,-1.09375 0.89062,-0.40625 2.09375,-0.40625 1.04687,0 1.96875,0.32812 0.9375,0.32813 1.70312,1.0625 l -1,1.57813 q -0.75,-0.57813 -1.42187,-0.84375 -0.67188,-0.26563 -1.35938,-0.26563 -0.39062,0 -0.75,0.0937 -0.34375,0.0937 -0.5625,0.3125 -0.20312,0.20313 -0.20312,0.59375 0,0.35938 0.1875,0.5625 0.20312,0.1875 0.59375,0.34375 0.40625,0.14063 0.98437,0.32813 1.1875,0.32812 1.98438,0.6875 0.8125,0.35937 1.21875,0.875 0.42187,0.5 0.42187,1.40625 0,1.45312 -1.0625,2.28125 -1.0625,0.8125 -2.85937,0.8125 z m 11.42578,-0.6875 q -0.32813,0.125 -0.78125,0.29687 -0.4375,0.17188 -0.95313,0.26563 -0.51562,0.10937 -1.03125,0.10937 -0.6875,0 -1.26562,-0.23437 -0.57813,-0.25 -0.92188,-0.78125 -0.34375,-0.53125 -0.34375,-1.39063 v -5.625 h -1.29687 v -1.92187 h 1.29687 v -3.17188 h 2.5 v 3.17188 h 2.04688 v 1.92187 h -2.04688 v 4.78125 q 0.0156,0.5 0.26563,0.73438 0.26562,0.21875 0.65625,0.21875 0.39062,0 0.76562,-0.125 0.375,-0.14063 0.60938,-0.23438 z m 5.70526,0.6875 q -1.17188,0 -2.125,-0.39063 -0.95313,-0.40625 -1.625,-1.10937 -0.67188,-0.70313 -1.04688,-1.60938 -0.35937,-0.90625 -0.35937,-1.90625 0,-1.40625 0.625,-2.5625 0.625,-1.15625 1.79687,-1.84375 1.17188,-0.70312 2.75,-0.70312 1.60938,0 2.75,0.70312 1.14063,0.6875 1.73438,1.84375 0.60937,1.14063 0.60937,2.46875 0,0.21875 -0.0156,0.45313 -0.0156,0.23437 -0.0312,0.39062 h -7.5625 q 0.0781,0.73438 0.4375,1.29688 0.35937,0.5625 0.92187,0.85937 0.57813,0.28125 1.23438,0.28125 0.75,0 1.40625,-0.35937 0.65625,-0.375 0.90625,-0.96875 l 2.14062,0.59375 q -0.34375,0.75 -1.01562,1.32812 -0.65625,0.57813 -1.5625,0.90625 -0.89063,0.32813 -1.96875,0.32813 z m -2.5625,-5.85938 h 5.125 q -0.0781,-0.75 -0.42188,-1.29687 -0.34375,-0.54688 -0.90625,-0.85938 -0.5625,-0.3125 -1.25,-0.3125 -0.67187,0 -1.23437,0.3125 -0.54688,0.3125 -0.89063,0.85938 -0.34375,0.54687 -0.42187,1.29687 z m 24.3938,5.67188 h -2.5 v -5.48438 q 0,-1.15625 -0.40625,-1.70312 -0.40625,-0.5625 -1.10938,-0.5625 -0.73437,0 -1.39062,0.57812 -0.65625,0.5625 -0.9375,1.48438 v 5.6875 h -2.5 v -5.48438 q 0,-1.17187 -0.40625,-1.71875 -0.40625,-0.54687 -1.10938,-0.54687 -0.71875,0 -1.39062,0.5625 -0.65625,0.5625 -0.9375,1.48437 v 5.70313 h -2.5 v -9.78125 h 2.25 v 1.8125 q 0.5625,-0.95313 1.5,-1.45313 0.9375,-0.51562 2.14062,-0.51562 1.21875,0 1.89063,0.59375 0.6875,0.59375 0.875,1.46875 0.59375,-1 1.51562,-1.53125 0.92188,-0.53125 2.07813,-0.53125 0.92187,0 1.48437,0.32812 0.57813,0.3125 0.89063,0.875 0.3125,0.54688 0.4375,1.23438 0.125,0.6875 0.125,1.40625 z"
       fill-rule="nonzero"
       id="path125" />
    <path
       fill="#d75078"
       d="m 425.11935,220.45984 c -7.25574,0 -14.51148,7.25041 -14.51148,14.50081 v 58.04097 c 0,7.2504 7.25574,14.53857 14.51148,14.53857 h 543.0841 c 7.25574,0 14.54925,-7.28817 14.54925,-14.53857 v -58.04097 c 0,-7.2504 -7.29351,-14.50081 -14.54925,-14.50081 h -543.0841"
       fill-rule="evenodd"
       id="path127" />
    <path
       fill="#ffffff"
       d="m 665.6196,270.83264 q -1.59375,0 -2.70313,-0.53125 -1.10937,-0.53125 -1.79687,-1.45312 -0.67188,-0.9375 -1,-2.125 -0.3125,-1.1875 -0.3125,-2.48438 v -6.75 h 2.57812 v 6.75 q 0,0.82813 0.15625,1.60938 0.15625,0.76562 0.53125,1.39062 0.375,0.60938 0.98438,0.96875 0.625,0.34375 1.54687,0.34375 0.92188,0 1.54688,-0.35937 0.625,-0.35938 0.98437,-0.96875 0.375,-0.625 0.53125,-1.39063 0.17188,-0.78125 0.17188,-1.59375 v -6.75 h 2.5625 v 6.75 q 0,1.375 -0.32813,2.5625 -0.32812,1.1875 -1.03125,2.09375 -0.6875,0.90625 -1.79687,1.42188 -1.09375,0.51562 -2.625,0.51562 z m 13.8988,-0.59375 q -0.32812,0.125 -0.78125,0.29688 -0.4375,0.17187 -0.95312,0.26562 -0.51563,0.10938 -1.03125,0.10938 -0.6875,0 -1.26563,-0.23438 -0.57812,-0.25 -0.92187,-0.78125 -0.34375,-0.53125 -0.34375,-1.39062 v -5.625 h -1.29688 v -1.92188 h 1.29688 v -3.17187 h 2.5 v 3.17187 h 2.04687 v 1.92188 h -2.04687 v 4.78125 q 0.0156,0.5 0.26562,0.73437 0.26563,0.21875 0.65625,0.21875 0.39063,0 0.76563,-0.125 0.375,-0.14062 0.60937,-0.23437 z m 1.30463,0.5 v -9.78125 h 2.5 v 9.78125 z m 0,-11.14062 v -2.48438 h 2.5 v 2.48438 z m 4.74176,-2.48438 h 2.5 v 10.48438 q 0,0.67187 0.21875,0.90625 0.21875,0.23437 0.60938,0.23437 0.29687,0 0.60937,-0.0625 0.32813,-0.0781 0.57813,-0.1875 l 0.32812,1.89063 q -0.5,0.25 -1.17187,0.375 -0.67188,0.14062 -1.21875,0.14062 -1.17188,0 -1.8125,-0.625 -0.64063,-0.625 -0.64063,-1.78125 z m 9.52338,13.8125 q -1.25,0 -2.39063,-0.40625 -1.125,-0.42187 -1.95312,-1.21875 l 0.89062,-1.625 q 0.89063,0.71875 1.73438,1.0625 0.84375,0.32813 1.625,0.32813 0.73437,0 1.17187,-0.26563 0.4375,-0.26562 0.4375,-0.78125 0,-0.35937 -0.25,-0.54687 -0.23437,-0.20313 -0.70312,-0.34375 -0.45313,-0.15625 -1.09375,-0.34375 -1.09375,-0.35938 -1.82813,-0.6875 -0.71875,-0.34375 -1.07812,-0.84375 -0.35938,-0.51563 -0.35938,-1.32813 0,-0.96875 0.48438,-1.65625 0.5,-0.70312 1.375,-1.09375 0.89062,-0.40625 2.09375,-0.40625 1.04687,0 1.96875,0.32813 0.9375,0.32812 1.70312,1.0625 l -1,1.57812 q -0.75,-0.57812 -1.42187,-0.84375 -0.67188,-0.26562 -1.35938,-0.26562 -0.39062,0 -0.75,0.0937 -0.34375,0.0937 -0.5625,0.3125 -0.20312,0.20312 -0.20312,0.59375 0,0.35937 0.1875,0.5625 0.20312,0.1875 0.59375,0.34375 0.40625,0.14062 0.98437,0.32812 1.1875,0.32813 1.98438,0.6875 0.8125,0.35938 1.21875,0.875 0.42187,0.5 0.42187,1.40625 0,1.45313 -1.0625,2.28125 -1.0625,0.8125 -2.85937,0.8125 z"
       fill-rule="nonzero"
       id="path129" />
    <path
       fill="#ffffff"
       d="m 704.4069,267.03577 q 0,-1.07812 0.45312,-2.15625 0.46875,-1.07812 1.14063,-2.20312 l 1.07812,0.45312 q -0.15625,0.25 -0.39062,0.6875 -0.21875,0.4375 -0.4375,1 -0.21875,0.54688 -0.375,1.14063 -0.14063,0.57812 -0.14063,1.10937 0,0.85938 0.35938,1.79688 0.375,0.92187 0.95312,1.92187 l -1.04687,0.51563 q -0.42188,-0.67188 -0.79688,-1.375 -0.375,-0.70313 -0.59375,-1.4375 -0.20312,-0.73438 -0.20312,-1.45313 z m 5.94379,3.8125 q -0.6875,0 -1.23438,-0.23437 -0.54687,-0.23438 -0.92187,-0.625 -0.375,-0.40625 -0.57813,-0.92188 -0.20312,-0.53125 -0.20312,-1.10937 0,-0.59375 0.20312,-1.10938 0.20313,-0.51562 0.57813,-0.92187 0.375,-0.40625 0.92187,-0.64063 0.54688,-0.23437 1.23438,-0.23437 0.67187,0 1.20312,0.23437 0.54688,0.23438 0.92188,0.64063 0.39062,0.40625 0.59375,0.92187 0.20312,0.51563 0.20312,1.10938 0,0.57812 -0.20312,1.10937 -0.20313,0.51563 -0.57813,0.92188 -0.375,0.39062 -0.92187,0.625 -0.54688,0.23437 -1.21875,0.23437 z m -1.46875,-2.89062 q 0,0.48437 0.1875,0.875 0.20312,0.375 0.53125,0.59375 0.32812,0.20312 0.75,0.20312 0.40625,0 0.73437,-0.21875 0.32813,-0.21875 0.51563,-0.59375 0.20312,-0.375 0.20312,-0.875 0,-0.46875 -0.20312,-0.84375 -0.1875,-0.39062 -0.51563,-0.60937 -0.32812,-0.21875 -0.73437,-0.21875 -0.42188,0 -0.75,0.21875 -0.32813,0.21875 -0.53125,0.60937 -0.1875,0.375 -0.1875,0.85938 z m 8.69214,2.89062 q -0.65625,0 -1.15625,-0.29687 -0.48438,-0.29688 -0.76563,-0.79688 v 3.25 h -1.42187 v -7.84375 h 1.23437 v 0.95313 q 0.32813,-0.48438 0.8125,-0.76563 0.5,-0.29687 1.125,-0.29687 0.5625,0 1.03125,0.23437 0.48438,0.21875 0.82813,0.625 0.35937,0.39063 0.54687,0.90625 0.20313,0.51563 0.20313,1.125 0,0.79688 -0.3125,1.46875 -0.3125,0.65625 -0.875,1.04688 -0.54688,0.39062 -1.25,0.39062 z m -0.48438,-1.21875 q 0.32813,0 0.59375,-0.14062 0.26563,-0.14063 0.46875,-0.375 0.20313,-0.23438 0.29688,-0.53125 0.0937,-0.3125 0.0937,-0.64063 0,-0.35937 -0.10938,-0.65625 -0.10937,-0.29687 -0.32812,-0.51562 -0.20313,-0.23438 -0.48438,-0.35938 -0.28125,-0.14062 -0.60937,-0.14062 -0.20313,0 -0.42188,0.0781 -0.20312,0.0625 -0.40625,0.1875 -0.1875,0.125 -0.32812,0.29688 -0.14063,0.17187 -0.20313,0.375 v 1.3125 q 0.125,0.3125 0.34375,0.57812 0.21875,0.25 0.5,0.39063 0.29688,0.14062 0.59375,0.14062 z m 7.16583,0.82813 q -0.1875,0.0625 -0.45312,0.17187 -0.25,0.0937 -0.54688,0.14063 -0.28125,0.0625 -0.57812,0.0625 -0.39063,0 -0.73438,-0.14063 -0.32812,-0.14062 -0.53125,-0.4375 -0.1875,-0.29687 -0.1875,-0.79687 v -3.20313 h -0.73437 v -1.09375 h 0.73437 v -1.8125 h 1.42188 v 1.8125 h 1.17187 v 1.09375 h -1.17187 v 2.71875 q 0.0156,0.29688 0.15625,0.42188 0.15625,0.125 0.39062,0.125 0.21875,0 0.42188,-0.0625 0.21875,-0.0781 0.34375,-0.14063 z m 0.74829,0.28125 v -5.57813 h 1.42188 v 5.57813 z m 0,-6.35938 v -1.42187 h 1.42188 v 1.42187 z m 5.29548,6.46875 q -0.6875,0 -1.23438,-0.23437 -0.54687,-0.23438 -0.92187,-0.625 -0.375,-0.40625 -0.57813,-0.92188 -0.20312,-0.53125 -0.20312,-1.10937 0,-0.59375 0.20312,-1.10938 0.20313,-0.51562 0.57813,-0.92187 0.375,-0.40625 0.92187,-0.64063 0.54688,-0.23437 1.23438,-0.23437 0.67187,0 1.20312,0.23437 0.54688,0.23438 0.92188,0.64063 0.39062,0.40625 0.59375,0.92187 0.20312,0.51563 0.20312,1.10938 0,0.57812 -0.20312,1.10937 -0.20313,0.51563 -0.57813,0.92188 -0.375,0.39062 -0.92187,0.625 -0.54688,0.23437 -1.21875,0.23437 z m -1.46875,-2.89062 q 0,0.48437 0.1875,0.875 0.20312,0.375 0.53125,0.59375 0.32812,0.20312 0.75,0.20312 0.40625,0 0.73437,-0.21875 0.32813,-0.21875 0.51563,-0.59375 0.20312,-0.375 0.20312,-0.875 0,-0.46875 -0.20312,-0.84375 -0.1875,-0.39062 -0.51563,-0.60937 -0.32812,-0.21875 -0.73437,-0.21875 -0.42188,0 -0.75,0.21875 -0.32813,0.21875 -0.53125,0.60937 -0.1875,0.375 -0.1875,0.85938 z m 10.53588,2.78125 h -1.4375 v -3.14063 q 0,-0.65625 -0.23437,-0.96875 -0.23438,-0.3125 -0.64063,-0.3125 -0.29687,0 -0.59375,0.15625 -0.28125,0.14063 -0.51562,0.40625 -0.23438,0.25 -0.34375,0.59375 v 3.26563 h -1.42188 v -5.57813 h 1.28125 v 1.03125 q 0.21875,-0.35937 0.54688,-0.60937 0.32812,-0.25 0.75,-0.39063 0.4375,-0.14062 0.92187,-0.14062 0.51563,0 0.84375,0.1875 0.34375,0.1875 0.51563,0.51562 0.1875,0.3125 0.25,0.70313 0.0781,0.39062 0.0781,0.79687 z m 0.85834,-1.65625 q 0,-0.53125 0.29688,-0.9375 0.3125,-0.42188 0.84375,-0.64063 0.54687,-0.23437 1.26562,-0.23437 0.34375,0 0.70313,0.0625 0.35937,0.0469 0.625,0.17187 v -0.29687 q 0,-0.54688 -0.3125,-0.82813 -0.3125,-0.28125 -0.92188,-0.28125 -0.46875,0 -0.89062,0.15625 -0.40625,0.15625 -0.85938,0.46875 l -0.46875,-0.9375 q 0.5625,-0.35937 1.14063,-0.54687 0.57812,-0.1875 1.21875,-0.1875 1.20312,0 1.85937,0.60937 0.67188,0.59375 0.67188,1.70313 v 1.78125 q 0,0.21875 0.0781,0.3125 0.0781,0.0937 0.26563,0.125 v 1.15625 q -0.20313,0.0312 -0.35938,0.0469 -0.14062,0.0312 -0.25,0.0312 -0.4375,0 -0.65625,-0.1875 -0.20312,-0.20312 -0.26562,-0.48437 l -0.0312,-0.28125 q -0.35938,0.46875 -0.90625,0.73437 -0.54688,0.25 -1.10938,0.25 -0.54687,0 -1,-0.23437 -0.4375,-0.23438 -0.6875,-0.625 -0.25,-0.40625 -0.25,-0.90625 z m 3.46875,0.29687 q 0.125,-0.125 0.1875,-0.25 0.0781,-0.14062 0.0781,-0.25 v -0.5625 q -0.25,-0.10937 -0.54688,-0.15625 -0.29687,-0.0625 -0.5625,-0.0625 -0.5625,0 -0.92187,0.25 -0.34375,0.23438 -0.34375,0.625 0,0.20313 0.10937,0.40625 0.125,0.1875 0.34375,0.3125 0.21875,0.10938 0.53125,0.10938 0.32813,0 0.625,-0.125 0.3125,-0.125 0.5,-0.29688 z m 3.02301,-6.42187 h 1.42188 v 5.98437 q 0,0.39063 0.125,0.53125 0.14062,0.125 0.35937,0.125 0.17188,0 0.34375,-0.0312 0.1875,-0.0469 0.32813,-0.125 l 0.1875,1.09375 q -0.28125,0.14063 -0.67188,0.20313 -0.375,0.0781 -0.6875,0.0781 -0.67187,0 -1.04687,-0.34375 -0.35938,-0.35937 -0.35938,-1.03125 z m 5.70691,4.07812 q 0,0.71875 -0.21875,1.45313 -0.21875,0.73437 -0.57812,1.4375 -0.35938,0.70312 -0.8125,1.375 l -1.04688,-0.51563 q 0.59375,-1 0.95313,-1.92187 0.35937,-0.9375 0.35937,-1.79688 0,-0.53125 -0.14062,-1.10937 -0.14063,-0.59375 -0.35938,-1.14063 -0.21875,-0.5625 -0.45312,-1 -0.21875,-0.4375 -0.39063,-0.6875 l 1.10938,-0.45312 q 0.65625,1.125 1.10937,2.20312 0.46875,1.07813 0.46875,2.15625 z"
       fill-rule="nonzero"
       id="path131" />
    <path
       fill="#6667ab"
       d="m 425.6494,327.3827 c -7.52078,0 -15.04153,7.51495 -15.04153,15.02991 v 60.11975 c 0,7.51495 7.52075,15.06768 15.04153,15.06768 h 542.0618 c 7.52075,0 15.0415,-7.55273 15.0415,-15.06768 v -60.11975 c 0,-7.51496 -7.52075,-15.02991 -15.0415,-15.02991 H 425.6494"
       fill-rule="evenodd"
       id="path133" />
    <path
       fill="#ffffff"
       d="m 616.70374,379.23022 v -13.25 h 5.85938 q 0.92187,0 1.6875,0.375 0.78125,0.375 1.34375,1.01562 0.57812,0.625 0.875,1.42188 0.3125,0.78125 0.3125,1.59375 0,0.84375 -0.29688,1.625 -0.28125,0.76562 -0.82812,1.34375 -0.53125,0.57812 -1.26563,0.89062 l 3.03125,4.98438 h -2.84375 l -2.71875,-4.4375 h -2.57812 v 4.4375 z m 2.57813,-6.70313 h 3.23437 q 0.48438,0 0.84375,-0.28125 0.375,-0.29687 0.59375,-0.78125 0.23438,-0.48437 0.23438,-1.07812 0,-0.64063 -0.26563,-1.10938 -0.25,-0.46875 -0.65625,-0.75 -0.40625,-0.28125 -0.85937,-0.28125 h -3.125 z m 19.5852,-4.28125 h -4.23438 v 10.98438 h -2.54687 v -10.98438 h -4.23438 v -2.26562 h 11.01563 z m 0.29974,6.98438 v -2.25 h 5.65625 v 2.25 z m 18.76709,0.57812 q 0,1.125 -0.57812,1.89063 -0.57813,0.75 -1.5625,1.14062 -0.96875,0.39063 -2.125,0.39063 h -6.40625 v -13.25 h 7.09375 q 0.9375,0 1.60937,0.5 0.6875,0.5 1.04688,1.28125 0.375,0.76562 0.375,1.59375 0,0.95312 -0.5,1.8125 -0.48438,0.85937 -1.40625,1.26562 1.14062,0.34375 1.79687,1.21875 0.65625,0.875 0.65625,2.15625 z m -2.59375,-0.48437 q 0,-0.5 -0.20312,-0.89063 -0.20313,-0.40625 -0.54688,-0.64062 -0.34375,-0.23438 -0.79687,-0.23438 h -3.95313 v 3.48438 h 3.82813 q 0.46875,0 0.84375,-0.23438 0.39062,-0.23437 0.60937,-0.625 0.21875,-0.39062 0.21875,-0.85937 z m -5.5,-7.14063 v 3.34375 h 3.4375 q 0.42188,0 0.78125,-0.20312 0.35938,-0.20313 0.5625,-0.57813 0.21875,-0.375 0.21875,-0.90625 0,-0.5 -0.20312,-0.875 -0.1875,-0.375 -0.51563,-0.57812 -0.32812,-0.20313 -0.73437,-0.20313 z m 14.40497,11.23438 q -1.17187,0 -2.125,-0.39063 -0.95312,-0.40625 -1.625,-1.10937 -0.67187,-0.70313 -1.04687,-1.60938 -0.35938,-0.90625 -0.35938,-1.90625 0,-1.40625 0.625,-2.5625 0.625,-1.15625 1.79688,-1.84375 1.17187,-0.70312 2.75,-0.70312 1.60937,0 2.75,0.70312 1.14062,0.6875 1.73437,1.84375 0.60938,1.14063 0.60938,2.46875 0,0.21875 -0.0156,0.45313 -0.0156,0.23437 -0.0312,0.39062 h -7.5625 q 0.0781,0.73438 0.4375,1.29688 0.35938,0.5625 0.92188,0.85937 0.57812,0.28125 1.23437,0.28125 0.75,0 1.40625,-0.35937 0.65625,-0.375 0.90625,-0.96875 l 2.14063,0.59375 q -0.34375,0.75 -1.01563,1.32812 -0.65625,0.57813 -1.5625,0.90625 -0.89062,0.32813 -1.96875,0.32813 z m -2.5625,-5.85938 h 5.125 q -0.0781,-0.75 -0.42187,-1.29687 -0.34375,-0.54688 -0.90625,-0.85938 -0.5625,-0.3125 -1.25,-0.3125 -0.67188,0 -1.23438,0.3125 -0.54687,0.3125 -0.89062,0.85938 -0.34375,0.54687 -0.42188,1.29687 z m 18.28449,5.67188 h -2.5 v -5.48438 q 0,-1.17187 -0.40625,-1.71875 -0.40625,-0.54687 -1.14063,-0.54687 -0.5,0 -1.01562,0.26562 -0.51563,0.26563 -0.92188,0.71875 -0.40625,0.45313 -0.59375,1.0625 v 5.70313 h -2.5 v -9.78125 h 2.25 v 1.8125 q 0.375,-0.625 0.95313,-1.0625 0.57812,-0.45313 1.32812,-0.67188 0.76563,-0.23437 1.60938,-0.23437 0.90625,0 1.48437,0.32812 0.59375,0.3125 0.90625,0.875 0.3125,0.54688 0.42188,1.23438 0.125,0.6875 0.125,1.40625 z m 6.73712,0.1875 q -1.1875,0 -2.14063,-0.39063 -0.95312,-0.40625 -1.625,-1.125 -0.67187,-0.71875 -1.04687,-1.625 -0.35938,-0.92187 -0.35938,-1.9375 0,-1.375 0.625,-2.51562 0.625,-1.15625 1.78125,-1.84375 1.15625,-0.6875 2.75,-0.6875 1.57813,0 2.71875,0.6875 1.14063,0.6875 1.70313,1.8125 l -2.4375,0.73437 q -0.32813,-0.53125 -0.85938,-0.8125 -0.51562,-0.29687 -1.14062,-0.29687 -0.71875,0 -1.3125,0.35937 -0.57813,0.35938 -0.92188,1.03125 -0.32812,0.65625 -0.32812,1.53125 0,0.85938 0.34375,1.53125 0.34375,0.65625 0.92187,1.04688 0.57813,0.375 1.29688,0.375 0.4375,0 0.84375,-0.14063 0.40625,-0.15625 0.71875,-0.42187 0.3125,-0.26563 0.46875,-0.59375 l 2.4375,0.75 q -0.32813,0.71875 -0.98438,1.29687 -0.64062,0.57813 -1.51562,0.90625 -0.85938,0.32813 -1.9375,0.32813 z m 15.05334,-0.1875 h -2.5 v -5.48438 q 0,-1.14062 -0.4375,-1.70312 -0.4375,-0.5625 -1.20312,-0.5625 -0.4375,0 -0.95313,0.26562 -0.5,0.26563 -0.90625,0.71875 -0.39062,0.45313 -0.57812,1.0625 v 5.70313 h -2.5 v -13.625 h 2.5 v 5.65625 q 0.53125,-0.9375 1.46875,-1.45313 0.9375,-0.51562 2.03125,-0.51562 0.95312,0 1.54687,0.32812 0.60938,0.3125 0.9375,0.875 0.34375,0.54688 0.46875,1.23438 0.125,0.67187 0.125,1.40625 z m 10.49591,0.0625 q -0.96875,0 -1.78125,-0.375 -0.8125,-0.39063 -1.40625,-1.07813 -0.59375,-0.70312 -0.90625,-1.59375 -0.3125,-0.89062 -0.3125,-1.90625 0,-1.0625 0.32813,-1.96875 0.34375,-0.92187 0.9375,-1.60937 0.60937,-0.70313 1.4375,-1.07813 0.84375,-0.39062 1.84375,-0.39062 1.14062,0 2,0.51562 0.85937,0.5 1.42187,1.35938 v -1.71875 h 2.17188 v 9.3125 q 0,1.45312 -0.70313,2.48437 -0.6875,1.04688 -1.92187,1.59375 -1.23438,0.54688 -2.79688,0.54688 -1.59375,0 -2.6875,-0.53125 -1.09375,-0.53125 -1.89062,-1.5 l 1.375,-1.32813 q 0.54687,0.70313 1.39062,1.09375 0.85938,0.39063 1.8125,0.39063 0.79688,0 1.45313,-0.29688 0.67187,-0.28125 1.0625,-0.89062 0.40625,-0.60938 0.40625,-1.5625 v -1.23438 q -0.48438,0.84375 -1.375,1.3125 -0.875,0.45313 -1.85938,0.45313 z m 0.82813,-2 q 0.42187,0 0.78125,-0.125 0.375,-0.14063 0.6875,-0.35938 0.32812,-0.23437 0.5625,-0.53125 0.25,-0.3125 0.375,-0.625 v -2.32812 q -0.21875,-0.59375 -0.625,-1.01563 -0.39063,-0.42187 -0.89063,-0.65625 -0.5,-0.23437 -1.03125,-0.23437 -0.57812,0 -1.04687,0.25 -0.46875,0.23437 -0.8125,0.67187 -0.32813,0.4375 -0.51563,0.96875 -0.17187,0.53125 -0.17187,1.10938 0,0.59375 0.20312,1.125 0.21875,0.51562 0.57813,0.90625 0.35937,0.39062 0.85937,0.625 0.5,0.21875 1.04688,0.21875 z m 11.70306,2.125 q -1.17187,0 -2.125,-0.39063 -0.95312,-0.40625 -1.625,-1.10937 -0.67187,-0.70313 -1.04687,-1.60938 -0.35938,-0.90625 -0.35938,-1.90625 0,-1.40625 0.625,-2.5625 0.625,-1.15625 1.79688,-1.84375 1.17187,-0.70312 2.75,-0.70312 1.60937,0 2.75,0.70312 1.14062,0.6875 1.73437,1.84375 0.60938,1.14063 0.60938,2.46875 0,0.21875 -0.0156,0.45313 -0.0156,0.23437 -0.0312,0.39062 h -7.5625 q 0.0781,0.73438 0.4375,1.29688 0.35938,0.5625 0.92188,0.85937 0.57812,0.28125 1.23437,0.28125 0.75,0 1.40625,-0.35937 0.65625,-0.375 0.90625,-0.96875 l 2.14063,0.59375 q -0.34375,0.75 -1.01563,1.32812 -0.65625,0.57813 -1.5625,0.90625 -0.89062,0.32813 -1.96875,0.32813 z m -2.5625,-5.85938 h 5.125 q -0.0781,-0.75 -0.42187,-1.29687 -0.34375,-0.54688 -0.90625,-0.85938 -0.5625,-0.3125 -1.25,-0.3125 -0.67188,0 -1.23438,0.3125 -0.54687,0.3125 -0.89062,0.85938 -0.34375,0.54687 -0.42188,1.29687 z m 18.28449,5.67188 h -2.5 v -5.48438 q 0,-1.17187 -0.40625,-1.71875 -0.40625,-0.54687 -1.14063,-0.54687 -0.5,0 -1.01562,0.26562 -0.51563,0.26563 -0.92188,0.71875 -0.40625,0.45313 -0.59375,1.0625 v 5.70313 h -2.5 v -9.78125 h 2.25 v 1.8125 q 0.375,-0.625 0.95313,-1.0625 0.57812,-0.45313 1.32812,-0.67188 0.76563,-0.23437 1.60938,-0.23437 0.90625,0 1.48437,0.32812 0.59375,0.3125 0.90625,0.875 0.3125,0.54688 0.42188,1.23438 0.125,0.6875 0.125,1.40625 z m 6.72149,0.1875 q -1.17187,0 -2.125,-0.39063 -0.95312,-0.40625 -1.625,-1.10937 -0.67187,-0.70313 -1.04687,-1.60938 -0.35938,-0.90625 -0.35938,-1.90625 0,-1.40625 0.625,-2.5625 0.625,-1.15625 1.79688,-1.84375 1.17187,-0.70312 2.75,-0.70312 1.60937,0 2.75,0.70312 1.14062,0.6875 1.73437,1.84375 0.60938,1.14063 0.60938,2.46875 0,0.21875 -0.0156,0.45313 -0.0156,0.23437 -0.0312,0.39062 h -7.5625 q 0.0781,0.73438 0.4375,1.29688 0.35938,0.5625 0.92188,0.85937 0.57812,0.28125 1.23437,0.28125 0.75,0 1.40625,-0.35937 0.65625,-0.375 0.90625,-0.96875 l 2.14063,0.59375 q -0.34375,0.75 -1.01563,1.32812 -0.65625,0.57813 -1.5625,0.90625 -0.89062,0.32813 -1.96875,0.32813 z m -2.5625,-5.85938 h 5.125 q -0.0781,-0.75 -0.42187,-1.29687 -0.34375,-0.54688 -0.90625,-0.85938 -0.5625,-0.3125 -1.25,-0.3125 -0.67188,0 -1.23438,0.3125 -0.54687,0.3125 -0.89062,0.85938 -0.34375,0.54687 -0.42188,1.29687 z m 15.0188,-1.9375 q -1.125,0 -2.03125,0.4375 -0.89062,0.4375 -1.28125,1.26563 v 5.90625 h -2.5 v -9.78125 h 2.29688 v 2.09375 q 0.51562,-1 1.3125,-1.57813 0.8125,-0.57812 1.70312,-0.64062 0.20313,0 0.3125,0 0.125,0 0.1875,0.0156 z m 0.67963,4.71875 q 0,-0.95312 0.53125,-1.67187 0.53125,-0.71875 1.48438,-1.10938 0.95312,-0.39062 2.1875,-0.39062 0.60937,0 1.23437,0.0937 0.64063,0.0937 1.10938,0.29687 v -0.51562 q 0,-0.9375 -0.5625,-1.4375 -0.54688,-0.51563 -1.625,-0.51563 -0.79688,0 -1.53125,0.28125 -0.71875,0.28125 -1.53125,0.82813 l -0.79688,-1.64063 q 0.96875,-0.64062 1.98438,-0.95312 1.01562,-0.3125 2.14062,-0.3125 2.09375,0 3.25,1.04687 1.17188,1.03125 1.17188,2.98438 v 3.10937 q 0,0.39063 0.14062,0.5625 0.14063,0.15625 0.45313,0.20313 v 2.03125 q -0.32813,0.0625 -0.60938,0.0937 -0.26562,0.0312 -0.45312,0.0312 -0.75,0 -1.14063,-0.32813 -0.375,-0.34375 -0.46875,-0.82812 l -0.0469,-0.5 q -0.64063,0.82812 -1.59375,1.28125 -0.95313,0.4375 -1.9375,0.4375 -0.96875,0 -1.75,-0.39063 -0.76563,-0.40625 -1.20313,-1.10937 -0.4375,-0.70313 -0.4375,-1.57813 z m 6.07813,0.5 q 0.20312,-0.21875 0.32812,-0.4375 0.14063,-0.23437 0.14063,-0.42187 v -0.98438 q -0.45313,-0.1875 -0.98438,-0.28125 -0.51562,-0.10937 -0.96875,-0.10937 -0.98437,0 -1.60937,0.42187 -0.625,0.42188 -0.625,1.10938 0,0.375 0.20312,0.71875 0.21875,0.32812 0.60938,0.53125 0.39062,0.20312 0.9375,0.20312 0.54687,0 1.09375,-0.21875 0.54687,-0.21875 0.875,-0.53125 z m 11.06848,1.89063 q -0.32813,0.125 -0.78125,0.29687 -0.4375,0.17188 -0.95313,0.26563 -0.51562,0.10937 -1.03125,0.10937 -0.6875,0 -1.26562,-0.23437 -0.57813,-0.25 -0.92188,-0.78125 -0.34375,-0.53125 -0.34375,-1.39063 v -5.625 h -1.29687 v -1.92187 h 1.29687 v -3.17188 h 2.5 v 3.17188 h 2.04688 v 1.92187 h -2.04688 v 4.78125 q 0.0156,0.5 0.26563,0.73438 0.26562,0.21875 0.65625,0.21875 0.39062,0 0.76562,-0.125 0.375,-0.14063 0.60938,-0.23438 z m 5.68957,0.6875 q -1.20312,0 -2.15625,-0.39063 -0.9375,-0.40625 -1.60937,-1.10937 -0.65625,-0.71875 -1.01563,-1.625 -0.35937,-0.92188 -0.35937,-1.9375 0,-1.01563 0.35937,-1.92188 0.35938,-0.92187 1.01563,-1.625 0.67187,-0.71875 1.60937,-1.10937 0.95313,-0.40625 2.15625,-0.40625 1.1875,0 2.125,0.40625 0.95313,0.39062 1.625,1.10937 0.67188,0.70313 1.01563,1.625 0.34375,0.90625 0.34375,1.92188 0,1.01562 -0.34375,1.9375 -0.34375,0.90625 -1.01563,1.625 -0.65625,0.70312 -1.60937,1.10937 -0.95313,0.39063 -2.14063,0.39063 z m -2.5625,-5.0625 q 0,0.85937 0.32813,1.53125 0.34375,0.65625 0.92187,1.03125 0.57813,0.375 1.3125,0.375 0.70313,0 1.28125,-0.375 0.57813,-0.39063 0.92188,-1.04688 0.34375,-0.67187 0.34375,-1.53125 0,-0.84375 -0.34375,-1.51562 -0.34375,-0.67188 -0.92188,-1.03125 -0.57812,-0.375 -1.28125,-0.375 -0.73437,0 -1.3125,0.39062 -0.57812,0.375 -0.92187,1.03125 -0.32813,0.65625 -0.32813,1.51563 z m 15.1651,-2.73438 q -1.125,0 -2.03125,0.4375 -0.89062,0.4375 -1.28125,1.26563 v 5.90625 h -2.5 v -9.78125 h 2.29688 v 2.09375 q 0.51562,-1 1.3125,-1.57813 0.8125,-0.57812 1.70312,-0.64062 0.20313,0 0.3125,0 0.125,0 0.1875,0.0156 z"
       fill-rule="nonzero"
       id="path135" />
  </g>
</svg>
